<mxfile host="app.diagrams.net" agent="Mozilla/5.0 (Windows NT 10.0; Win64; x64) AppleWebKit/537.36 (KHTML, like Gecko) Chrome/129.0.0.0 Safari/537.36   " version="24.7.17">
  <diagram name="Page-1" id="puPw-F-46EG9WHCgjSaB">
    <mxGraphModel dx="1232" dy="1151" grid="1" gridSize="10" guides="1" tooltips="1" connect="1" arrows="1" fold="1" page="1" pageScale="1" pageWidth="850" pageHeight="1100" math="0" shadow="0">
      <root>
        <mxCell id="0" />
        <mxCell id="1" parent="0" />
        <mxCell id="Bwbdaf6C3-3l8KBU5pqP-19" style="edgeStyle=orthogonalEdgeStyle;rounded=0;orthogonalLoop=1;jettySize=auto;html=1;entryX=0;entryY=0.5;entryDx=0;entryDy=0;" edge="1" parent="1" source="Bwbdaf6C3-3l8KBU5pqP-1" target="Bwbdaf6C3-3l8KBU5pqP-13">
          <mxGeometry relative="1" as="geometry" />
        </mxCell>
        <mxCell id="Bwbdaf6C3-3l8KBU5pqP-20" value="HAS" style="edgeLabel;html=1;align=center;verticalAlign=middle;resizable=0;points=[];" vertex="1" connectable="0" parent="Bwbdaf6C3-3l8KBU5pqP-19">
          <mxGeometry x="-0.0028" relative="1" as="geometry">
            <mxPoint x="28" as="offset" />
          </mxGeometry>
        </mxCell>
        <mxCell id="Bwbdaf6C3-3l8KBU5pqP-36" style="edgeStyle=orthogonalEdgeStyle;rounded=0;orthogonalLoop=1;jettySize=auto;html=1;" edge="1" parent="1" source="Bwbdaf6C3-3l8KBU5pqP-1" target="Bwbdaf6C3-3l8KBU5pqP-27">
          <mxGeometry relative="1" as="geometry">
            <Array as="points">
              <mxPoint x="410" y="430" />
              <mxPoint x="410" y="510" />
            </Array>
          </mxGeometry>
        </mxCell>
        <mxCell id="Bwbdaf6C3-3l8KBU5pqP-38" value="WORKS_AT" style="edgeLabel;html=1;align=center;verticalAlign=middle;resizable=0;points=[];" vertex="1" connectable="0" parent="Bwbdaf6C3-3l8KBU5pqP-36">
          <mxGeometry x="0.3314" y="2" relative="1" as="geometry">
            <mxPoint x="13" y="1" as="offset" />
          </mxGeometry>
        </mxCell>
        <mxCell id="Bwbdaf6C3-3l8KBU5pqP-45" style="edgeStyle=orthogonalEdgeStyle;rounded=0;orthogonalLoop=1;jettySize=auto;html=1;" edge="1" parent="1" source="Bwbdaf6C3-3l8KBU5pqP-1" target="Bwbdaf6C3-3l8KBU5pqP-39">
          <mxGeometry relative="1" as="geometry">
            <Array as="points">
              <mxPoint x="300" y="665" />
            </Array>
          </mxGeometry>
        </mxCell>
        <mxCell id="Bwbdaf6C3-3l8KBU5pqP-53" value="IS" style="edgeLabel;html=1;align=center;verticalAlign=middle;resizable=0;points=[];" vertex="1" connectable="0" parent="Bwbdaf6C3-3l8KBU5pqP-45">
          <mxGeometry x="0.2936" y="2" relative="1" as="geometry">
            <mxPoint x="16" y="3" as="offset" />
          </mxGeometry>
        </mxCell>
        <mxCell id="Bwbdaf6C3-3l8KBU5pqP-51" style="edgeStyle=orthogonalEdgeStyle;rounded=0;orthogonalLoop=1;jettySize=auto;html=1;" edge="1" parent="1" source="Bwbdaf6C3-3l8KBU5pqP-1" target="Bwbdaf6C3-3l8KBU5pqP-46">
          <mxGeometry relative="1" as="geometry">
            <Array as="points">
              <mxPoint x="300" y="80" />
            </Array>
          </mxGeometry>
        </mxCell>
        <mxCell id="Bwbdaf6C3-3l8KBU5pqP-52" value="IS" style="edgeLabel;html=1;align=center;verticalAlign=middle;resizable=0;points=[];" vertex="1" connectable="0" parent="Bwbdaf6C3-3l8KBU5pqP-51">
          <mxGeometry x="0.3137" y="-3" relative="1" as="geometry">
            <mxPoint x="15" y="-3" as="offset" />
          </mxGeometry>
        </mxCell>
        <mxCell id="Bwbdaf6C3-3l8KBU5pqP-65" style="edgeStyle=orthogonalEdgeStyle;rounded=0;orthogonalLoop=1;jettySize=auto;html=1;" edge="1" parent="1" source="Bwbdaf6C3-3l8KBU5pqP-1" target="Bwbdaf6C3-3l8KBU5pqP-60">
          <mxGeometry relative="1" as="geometry">
            <Array as="points">
              <mxPoint x="300" y="815" />
            </Array>
          </mxGeometry>
        </mxCell>
        <mxCell id="Bwbdaf6C3-3l8KBU5pqP-66" value="HAS" style="edgeLabel;html=1;align=center;verticalAlign=middle;resizable=0;points=[];" vertex="1" connectable="0" parent="Bwbdaf6C3-3l8KBU5pqP-65">
          <mxGeometry x="0.4777" y="1" relative="1" as="geometry">
            <mxPoint x="8" y="1" as="offset" />
          </mxGeometry>
        </mxCell>
        <mxCell id="Bwbdaf6C3-3l8KBU5pqP-77" style="edgeStyle=orthogonalEdgeStyle;rounded=0;orthogonalLoop=1;jettySize=auto;html=1;" edge="1" parent="1" source="Bwbdaf6C3-3l8KBU5pqP-1" target="Bwbdaf6C3-3l8KBU5pqP-72">
          <mxGeometry relative="1" as="geometry">
            <Array as="points">
              <mxPoint x="300" y="970" />
            </Array>
          </mxGeometry>
        </mxCell>
        <mxCell id="Bwbdaf6C3-3l8KBU5pqP-80" value="STUDIED_AT | LIVES_IN | WENT_TO | FROM" style="edgeLabel;html=1;align=center;verticalAlign=middle;resizable=0;points=[];" vertex="1" connectable="0" parent="Bwbdaf6C3-3l8KBU5pqP-77">
          <mxGeometry x="0.5528" y="1" relative="1" as="geometry">
            <mxPoint x="7" as="offset" />
          </mxGeometry>
        </mxCell>
        <mxCell id="Bwbdaf6C3-3l8KBU5pqP-1" value="&lt;b&gt;Profile&lt;/b&gt;" style="swimlane;fontStyle=0;childLayout=stackLayout;horizontal=1;startSize=26;fillColor=none;horizontalStack=0;resizeParent=1;resizeParentMax=0;resizeLast=0;collapsible=1;marginBottom=0;whiteSpace=wrap;html=1;" vertex="1" parent="1">
          <mxGeometry x="230" y="300" width="140" height="260" as="geometry" />
        </mxCell>
        <mxCell id="Bwbdaf6C3-3l8KBU5pqP-2" value="- profileId: String" style="text;strokeColor=none;fillColor=none;align=left;verticalAlign=top;spacingLeft=4;spacingRight=4;overflow=hidden;rotatable=0;points=[[0,0.5],[1,0.5]];portConstraint=eastwest;whiteSpace=wrap;html=1;" vertex="1" parent="Bwbdaf6C3-3l8KBU5pqP-1">
          <mxGeometry y="26" width="140" height="26" as="geometry" />
        </mxCell>
        <mxCell id="Bwbdaf6C3-3l8KBU5pqP-3" value="- userId: long" style="text;strokeColor=none;fillColor=none;align=left;verticalAlign=top;spacingLeft=4;spacingRight=4;overflow=hidden;rotatable=0;points=[[0,0.5],[1,0.5]];portConstraint=eastwest;whiteSpace=wrap;html=1;" vertex="1" parent="Bwbdaf6C3-3l8KBU5pqP-1">
          <mxGeometry y="52" width="140" height="26" as="geometry" />
        </mxCell>
        <mxCell id="Bwbdaf6C3-3l8KBU5pqP-4" value="- bio: String" style="text;strokeColor=none;fillColor=none;align=left;verticalAlign=top;spacingLeft=4;spacingRight=4;overflow=hidden;rotatable=0;points=[[0,0.5],[1,0.5]];portConstraint=eastwest;whiteSpace=wrap;html=1;" vertex="1" parent="Bwbdaf6C3-3l8KBU5pqP-1">
          <mxGeometry y="78" width="140" height="26" as="geometry" />
        </mxCell>
        <mxCell id="Bwbdaf6C3-3l8KBU5pqP-5" value="- firstName: String" style="text;strokeColor=none;fillColor=none;align=left;verticalAlign=top;spacingLeft=4;spacingRight=4;overflow=hidden;rotatable=0;points=[[0,0.5],[1,0.5]];portConstraint=eastwest;whiteSpace=wrap;html=1;" vertex="1" parent="Bwbdaf6C3-3l8KBU5pqP-1">
          <mxGeometry y="104" width="140" height="26" as="geometry" />
        </mxCell>
        <mxCell id="Bwbdaf6C3-3l8KBU5pqP-6" value="- lastName: String" style="text;strokeColor=none;fillColor=none;align=left;verticalAlign=top;spacingLeft=4;spacingRight=4;overflow=hidden;rotatable=0;points=[[0,0.5],[1,0.5]];portConstraint=eastwest;whiteSpace=wrap;html=1;" vertex="1" parent="Bwbdaf6C3-3l8KBU5pqP-1">
          <mxGeometry y="130" width="140" height="26" as="geometry" />
        </mxCell>
        <mxCell id="Bwbdaf6C3-3l8KBU5pqP-7" value="- profilePictureId: long" style="text;strokeColor=none;fillColor=none;align=left;verticalAlign=top;spacingLeft=4;spacingRight=4;overflow=hidden;rotatable=0;points=[[0,0.5],[1,0.5]];portConstraint=eastwest;whiteSpace=wrap;html=1;" vertex="1" parent="Bwbdaf6C3-3l8KBU5pqP-1">
          <mxGeometry y="156" width="140" height="26" as="geometry" />
        </mxCell>
        <mxCell id="Bwbdaf6C3-3l8KBU5pqP-8" value="- bannerPictureId: long" style="text;strokeColor=none;fillColor=none;align=left;verticalAlign=top;spacingLeft=4;spacingRight=4;overflow=hidden;rotatable=0;points=[[0,0.5],[1,0.5]];portConstraint=eastwest;whiteSpace=wrap;html=1;" vertex="1" parent="Bwbdaf6C3-3l8KBU5pqP-1">
          <mxGeometry y="182" width="140" height="26" as="geometry" />
        </mxCell>
        <mxCell id="Bwbdaf6C3-3l8KBU5pqP-9" value="- isOnline: boolean" style="text;strokeColor=none;fillColor=none;align=left;verticalAlign=top;spacingLeft=4;spacingRight=4;overflow=hidden;rotatable=0;points=[[0,0.5],[1,0.5]];portConstraint=eastwest;whiteSpace=wrap;html=1;" vertex="1" parent="Bwbdaf6C3-3l8KBU5pqP-1">
          <mxGeometry y="208" width="140" height="26" as="geometry" />
        </mxCell>
        <mxCell id="Bwbdaf6C3-3l8KBU5pqP-10" value="- version: long" style="text;strokeColor=none;fillColor=none;align=left;verticalAlign=top;spacingLeft=4;spacingRight=4;overflow=hidden;rotatable=0;points=[[0,0.5],[1,0.5]];portConstraint=eastwest;whiteSpace=wrap;html=1;" vertex="1" parent="Bwbdaf6C3-3l8KBU5pqP-1">
          <mxGeometry y="234" width="140" height="26" as="geometry" />
        </mxCell>
        <mxCell id="Bwbdaf6C3-3l8KBU5pqP-11" value="&lt;b&gt;Email&lt;/b&gt;" style="swimlane;fontStyle=0;childLayout=stackLayout;horizontal=1;startSize=26;fillColor=none;horizontalStack=0;resizeParent=1;resizeParentMax=0;resizeLast=0;collapsible=1;marginBottom=0;whiteSpace=wrap;html=1;" vertex="1" parent="1">
          <mxGeometry x="590" y="150" width="250" height="130" as="geometry" />
        </mxCell>
        <mxCell id="Bwbdaf6C3-3l8KBU5pqP-12" value="- mailId: String" style="text;strokeColor=none;fillColor=none;align=left;verticalAlign=top;spacingLeft=4;spacingRight=4;overflow=hidden;rotatable=0;points=[[0,0.5],[1,0.5]];portConstraint=eastwest;whiteSpace=wrap;html=1;" vertex="1" parent="Bwbdaf6C3-3l8KBU5pqP-11">
          <mxGeometry y="26" width="250" height="26" as="geometry" />
        </mxCell>
        <mxCell id="Bwbdaf6C3-3l8KBU5pqP-13" value="- emailValue: String" style="text;strokeColor=none;fillColor=none;align=left;verticalAlign=top;spacingLeft=4;spacingRight=4;overflow=hidden;rotatable=0;points=[[0,0.5],[1,0.5]];portConstraint=eastwest;whiteSpace=wrap;html=1;" vertex="1" parent="Bwbdaf6C3-3l8KBU5pqP-11">
          <mxGeometry y="52" width="250" height="26" as="geometry" />
        </mxCell>
        <mxCell id="Bwbdaf6C3-3l8KBU5pqP-14" value="- privacyLevel: PrivacyLevel" style="text;strokeColor=none;fillColor=none;align=left;verticalAlign=top;spacingLeft=4;spacingRight=4;overflow=hidden;rotatable=0;points=[[0,0.5],[1,0.5]];portConstraint=eastwest;whiteSpace=wrap;html=1;" vertex="1" parent="Bwbdaf6C3-3l8KBU5pqP-11">
          <mxGeometry y="78" width="250" height="26" as="geometry" />
        </mxCell>
        <mxCell id="Bwbdaf6C3-3l8KBU5pqP-34" value="- version: long" style="text;strokeColor=none;fillColor=none;align=left;verticalAlign=top;spacingLeft=4;spacingRight=4;overflow=hidden;rotatable=0;points=[[0,0.5],[1,0.5]];portConstraint=eastwest;whiteSpace=wrap;html=1;" vertex="1" parent="Bwbdaf6C3-3l8KBU5pqP-11">
          <mxGeometry y="104" width="250" height="26" as="geometry" />
        </mxCell>
        <mxCell id="Bwbdaf6C3-3l8KBU5pqP-23" value="&lt;b&gt;BirthDate&lt;/b&gt;" style="swimlane;fontStyle=0;childLayout=stackLayout;horizontal=1;startSize=26;fillColor=none;horizontalStack=0;resizeParent=1;resizeParentMax=0;resizeLast=0;collapsible=1;marginBottom=0;whiteSpace=wrap;html=1;" vertex="1" parent="1">
          <mxGeometry x="590" y="290" width="250" height="130" as="geometry" />
        </mxCell>
        <mxCell id="Bwbdaf6C3-3l8KBU5pqP-24" value="- birthDateId: String" style="text;strokeColor=none;fillColor=none;align=left;verticalAlign=top;spacingLeft=4;spacingRight=4;overflow=hidden;rotatable=0;points=[[0,0.5],[1,0.5]];portConstraint=eastwest;whiteSpace=wrap;html=1;" vertex="1" parent="Bwbdaf6C3-3l8KBU5pqP-23">
          <mxGeometry y="26" width="250" height="26" as="geometry" />
        </mxCell>
        <mxCell id="Bwbdaf6C3-3l8KBU5pqP-25" value="- dateOfBirth: String" style="text;strokeColor=none;fillColor=none;align=left;verticalAlign=top;spacingLeft=4;spacingRight=4;overflow=hidden;rotatable=0;points=[[0,0.5],[1,0.5]];portConstraint=eastwest;whiteSpace=wrap;html=1;" vertex="1" parent="Bwbdaf6C3-3l8KBU5pqP-23">
          <mxGeometry y="52" width="250" height="26" as="geometry" />
        </mxCell>
        <mxCell id="Bwbdaf6C3-3l8KBU5pqP-26" value="- privacyLevel: PrivacyLevel" style="text;strokeColor=none;fillColor=none;align=left;verticalAlign=top;spacingLeft=4;spacingRight=4;overflow=hidden;rotatable=0;points=[[0,0.5],[1,0.5]];portConstraint=eastwest;whiteSpace=wrap;html=1;" vertex="1" parent="Bwbdaf6C3-3l8KBU5pqP-23">
          <mxGeometry y="78" width="250" height="26" as="geometry" />
        </mxCell>
        <mxCell id="Bwbdaf6C3-3l8KBU5pqP-33" value="- version: long" style="text;strokeColor=none;fillColor=none;align=left;verticalAlign=top;spacingLeft=4;spacingRight=4;overflow=hidden;rotatable=0;points=[[0,0.5],[1,0.5]];portConstraint=eastwest;whiteSpace=wrap;html=1;" vertex="1" parent="Bwbdaf6C3-3l8KBU5pqP-23">
          <mxGeometry y="104" width="250" height="26" as="geometry" />
        </mxCell>
        <mxCell id="Bwbdaf6C3-3l8KBU5pqP-27" value="&lt;b&gt;Workplace&lt;/b&gt;" style="swimlane;fontStyle=0;childLayout=stackLayout;horizontal=1;startSize=26;fillColor=none;horizontalStack=0;resizeParent=1;resizeParentMax=0;resizeLast=0;collapsible=1;marginBottom=0;whiteSpace=wrap;html=1;" vertex="1" parent="1">
          <mxGeometry x="590" y="430" width="250" height="156" as="geometry" />
        </mxCell>
        <mxCell id="Bwbdaf6C3-3l8KBU5pqP-28" value="- workplaceId: String" style="text;strokeColor=none;fillColor=none;align=left;verticalAlign=top;spacingLeft=4;spacingRight=4;overflow=hidden;rotatable=0;points=[[0,0.5],[1,0.5]];portConstraint=eastwest;whiteSpace=wrap;html=1;" vertex="1" parent="Bwbdaf6C3-3l8KBU5pqP-27">
          <mxGeometry y="26" width="250" height="26" as="geometry" />
        </mxCell>
        <mxCell id="Bwbdaf6C3-3l8KBU5pqP-29" value="- position: String" style="text;strokeColor=none;fillColor=none;align=left;verticalAlign=top;spacingLeft=4;spacingRight=4;overflow=hidden;rotatable=0;points=[[0,0.5],[1,0.5]];portConstraint=eastwest;whiteSpace=wrap;html=1;" vertex="1" parent="Bwbdaf6C3-3l8KBU5pqP-27">
          <mxGeometry y="52" width="250" height="26" as="geometry" />
        </mxCell>
        <mxCell id="Bwbdaf6C3-3l8KBU5pqP-31" value="- workplaceName: String" style="text;strokeColor=none;fillColor=none;align=left;verticalAlign=top;spacingLeft=4;spacingRight=4;overflow=hidden;rotatable=0;points=[[0,0.5],[1,0.5]];portConstraint=eastwest;whiteSpace=wrap;html=1;" vertex="1" parent="Bwbdaf6C3-3l8KBU5pqP-27">
          <mxGeometry y="78" width="250" height="26" as="geometry" />
        </mxCell>
        <mxCell id="Bwbdaf6C3-3l8KBU5pqP-30" value="- privacyLevel: PrivacyLevel" style="text;strokeColor=none;fillColor=none;align=left;verticalAlign=top;spacingLeft=4;spacingRight=4;overflow=hidden;rotatable=0;points=[[0,0.5],[1,0.5]];portConstraint=eastwest;whiteSpace=wrap;html=1;" vertex="1" parent="Bwbdaf6C3-3l8KBU5pqP-27">
          <mxGeometry y="104" width="250" height="26" as="geometry" />
        </mxCell>
        <mxCell id="Bwbdaf6C3-3l8KBU5pqP-32" value="- version: long" style="text;strokeColor=none;fillColor=none;align=left;verticalAlign=top;spacingLeft=4;spacingRight=4;overflow=hidden;rotatable=0;points=[[0,0.5],[1,0.5]];portConstraint=eastwest;whiteSpace=wrap;html=1;" vertex="1" parent="Bwbdaf6C3-3l8KBU5pqP-27">
          <mxGeometry y="130" width="250" height="26" as="geometry" />
        </mxCell>
        <mxCell id="Bwbdaf6C3-3l8KBU5pqP-35" style="edgeStyle=orthogonalEdgeStyle;rounded=0;orthogonalLoop=1;jettySize=auto;html=1;" edge="1" parent="1" source="Bwbdaf6C3-3l8KBU5pqP-5" target="Bwbdaf6C3-3l8KBU5pqP-23">
          <mxGeometry relative="1" as="geometry">
            <Array as="points">
              <mxPoint x="410" y="417" />
              <mxPoint x="410" y="355" />
            </Array>
          </mxGeometry>
        </mxCell>
        <mxCell id="Bwbdaf6C3-3l8KBU5pqP-37" value="BORN_ON" style="edgeLabel;html=1;align=center;verticalAlign=middle;resizable=0;points=[];" vertex="1" connectable="0" parent="Bwbdaf6C3-3l8KBU5pqP-35">
          <mxGeometry x="0.0873" relative="1" as="geometry">
            <mxPoint x="15" as="offset" />
          </mxGeometry>
        </mxCell>
        <mxCell id="Bwbdaf6C3-3l8KBU5pqP-39" value="&lt;b&gt;RelationshipStatus&lt;/b&gt;" style="swimlane;fontStyle=0;childLayout=stackLayout;horizontal=1;startSize=26;fillColor=none;horizontalStack=0;resizeParent=1;resizeParentMax=0;resizeLast=0;collapsible=1;marginBottom=0;whiteSpace=wrap;html=1;" vertex="1" parent="1">
          <mxGeometry x="590" y="600" width="250" height="130" as="geometry" />
        </mxCell>
        <mxCell id="Bwbdaf6C3-3l8KBU5pqP-40" value="- relationshipStatusId: String" style="text;strokeColor=none;fillColor=none;align=left;verticalAlign=top;spacingLeft=4;spacingRight=4;overflow=hidden;rotatable=0;points=[[0,0.5],[1,0.5]];portConstraint=eastwest;whiteSpace=wrap;html=1;" vertex="1" parent="Bwbdaf6C3-3l8KBU5pqP-39">
          <mxGeometry y="26" width="250" height="26" as="geometry" />
        </mxCell>
        <mxCell id="Bwbdaf6C3-3l8KBU5pqP-41" value="-&amp;nbsp;relationshipStatus: RelationshipStatusType" style="text;strokeColor=none;fillColor=none;align=left;verticalAlign=top;spacingLeft=4;spacingRight=4;overflow=hidden;rotatable=0;points=[[0,0.5],[1,0.5]];portConstraint=eastwest;whiteSpace=wrap;html=1;" vertex="1" parent="Bwbdaf6C3-3l8KBU5pqP-39">
          <mxGeometry y="52" width="250" height="26" as="geometry" />
        </mxCell>
        <mxCell id="Bwbdaf6C3-3l8KBU5pqP-43" value="- privacyLevel: PrivacyLevel" style="text;strokeColor=none;fillColor=none;align=left;verticalAlign=top;spacingLeft=4;spacingRight=4;overflow=hidden;rotatable=0;points=[[0,0.5],[1,0.5]];portConstraint=eastwest;whiteSpace=wrap;html=1;" vertex="1" parent="Bwbdaf6C3-3l8KBU5pqP-39">
          <mxGeometry y="78" width="250" height="26" as="geometry" />
        </mxCell>
        <mxCell id="Bwbdaf6C3-3l8KBU5pqP-44" value="- version: long" style="text;strokeColor=none;fillColor=none;align=left;verticalAlign=top;spacingLeft=4;spacingRight=4;overflow=hidden;rotatable=0;points=[[0,0.5],[1,0.5]];portConstraint=eastwest;whiteSpace=wrap;html=1;" vertex="1" parent="Bwbdaf6C3-3l8KBU5pqP-39">
          <mxGeometry y="104" width="250" height="26" as="geometry" />
        </mxCell>
        <mxCell id="Bwbdaf6C3-3l8KBU5pqP-46" value="&lt;b&gt;Gender&lt;/b&gt;" style="swimlane;fontStyle=0;childLayout=stackLayout;horizontal=1;startSize=26;fillColor=none;horizontalStack=0;resizeParent=1;resizeParentMax=0;resizeLast=0;collapsible=1;marginBottom=0;whiteSpace=wrap;html=1;" vertex="1" parent="1">
          <mxGeometry x="590" y="10" width="250" height="130" as="geometry" />
        </mxCell>
        <mxCell id="Bwbdaf6C3-3l8KBU5pqP-47" value="- genderId: String" style="text;strokeColor=none;fillColor=none;align=left;verticalAlign=top;spacingLeft=4;spacingRight=4;overflow=hidden;rotatable=0;points=[[0,0.5],[1,0.5]];portConstraint=eastwest;whiteSpace=wrap;html=1;" vertex="1" parent="Bwbdaf6C3-3l8KBU5pqP-46">
          <mxGeometry y="26" width="250" height="26" as="geometry" />
        </mxCell>
        <mxCell id="Bwbdaf6C3-3l8KBU5pqP-48" value="- genderType: GenderType" style="text;strokeColor=none;fillColor=none;align=left;verticalAlign=top;spacingLeft=4;spacingRight=4;overflow=hidden;rotatable=0;points=[[0,0.5],[1,0.5]];portConstraint=eastwest;whiteSpace=wrap;html=1;" vertex="1" parent="Bwbdaf6C3-3l8KBU5pqP-46">
          <mxGeometry y="52" width="250" height="26" as="geometry" />
        </mxCell>
        <mxCell id="Bwbdaf6C3-3l8KBU5pqP-49" value="- privacyLevel: PrivacyLevel" style="text;strokeColor=none;fillColor=none;align=left;verticalAlign=top;spacingLeft=4;spacingRight=4;overflow=hidden;rotatable=0;points=[[0,0.5],[1,0.5]];portConstraint=eastwest;whiteSpace=wrap;html=1;" vertex="1" parent="Bwbdaf6C3-3l8KBU5pqP-46">
          <mxGeometry y="78" width="250" height="26" as="geometry" />
        </mxCell>
        <mxCell id="Bwbdaf6C3-3l8KBU5pqP-50" value="- version: long" style="text;strokeColor=none;fillColor=none;align=left;verticalAlign=top;spacingLeft=4;spacingRight=4;overflow=hidden;rotatable=0;points=[[0,0.5],[1,0.5]];portConstraint=eastwest;whiteSpace=wrap;html=1;" vertex="1" parent="Bwbdaf6C3-3l8KBU5pqP-46">
          <mxGeometry y="104" width="250" height="26" as="geometry" />
        </mxCell>
        <mxCell id="Bwbdaf6C3-3l8KBU5pqP-60" value="&lt;b&gt;Mobile&lt;/b&gt;" style="swimlane;fontStyle=0;childLayout=stackLayout;horizontal=1;startSize=26;fillColor=none;horizontalStack=0;resizeParent=1;resizeParentMax=0;resizeLast=0;collapsible=1;marginBottom=0;whiteSpace=wrap;html=1;" vertex="1" parent="1">
          <mxGeometry x="590" y="750" width="250" height="130" as="geometry" />
        </mxCell>
        <mxCell id="Bwbdaf6C3-3l8KBU5pqP-61" value="- mobileId: String" style="text;strokeColor=none;fillColor=none;align=left;verticalAlign=top;spacingLeft=4;spacingRight=4;overflow=hidden;rotatable=0;points=[[0,0.5],[1,0.5]];portConstraint=eastwest;whiteSpace=wrap;html=1;" vertex="1" parent="Bwbdaf6C3-3l8KBU5pqP-60">
          <mxGeometry y="26" width="250" height="26" as="geometry" />
        </mxCell>
        <mxCell id="Bwbdaf6C3-3l8KBU5pqP-62" value="- phoneNumber: String" style="text;strokeColor=none;fillColor=none;align=left;verticalAlign=top;spacingLeft=4;spacingRight=4;overflow=hidden;rotatable=0;points=[[0,0.5],[1,0.5]];portConstraint=eastwest;whiteSpace=wrap;html=1;" vertex="1" parent="Bwbdaf6C3-3l8KBU5pqP-60">
          <mxGeometry y="52" width="250" height="26" as="geometry" />
        </mxCell>
        <mxCell id="Bwbdaf6C3-3l8KBU5pqP-63" value="- privacyLevel: PrivacyLevel" style="text;strokeColor=none;fillColor=none;align=left;verticalAlign=top;spacingLeft=4;spacingRight=4;overflow=hidden;rotatable=0;points=[[0,0.5],[1,0.5]];portConstraint=eastwest;whiteSpace=wrap;html=1;" vertex="1" parent="Bwbdaf6C3-3l8KBU5pqP-60">
          <mxGeometry y="78" width="250" height="26" as="geometry" />
        </mxCell>
        <mxCell id="Bwbdaf6C3-3l8KBU5pqP-64" value="- version: long" style="text;strokeColor=none;fillColor=none;align=left;verticalAlign=top;spacingLeft=4;spacingRight=4;overflow=hidden;rotatable=0;points=[[0,0.5],[1,0.5]];portConstraint=eastwest;whiteSpace=wrap;html=1;" vertex="1" parent="Bwbdaf6C3-3l8KBU5pqP-60">
          <mxGeometry y="104" width="250" height="26" as="geometry" />
        </mxCell>
        <mxCell id="Bwbdaf6C3-3l8KBU5pqP-72" value="&lt;b&gt;AboutDetails&lt;/b&gt;" style="swimlane;fontStyle=0;childLayout=stackLayout;horizontal=1;startSize=26;fillColor=none;horizontalStack=0;resizeParent=1;resizeParentMax=0;resizeLast=0;collapsible=1;marginBottom=0;whiteSpace=wrap;html=1;" vertex="1" parent="1">
          <mxGeometry x="590" y="900" width="250" height="130" as="geometry" />
        </mxCell>
        <mxCell id="Bwbdaf6C3-3l8KBU5pqP-73" value="- aboutDetailsId: String" style="text;strokeColor=none;fillColor=none;align=left;verticalAlign=top;spacingLeft=4;spacingRight=4;overflow=hidden;rotatable=0;points=[[0,0.5],[1,0.5]];portConstraint=eastwest;whiteSpace=wrap;html=1;" vertex="1" parent="Bwbdaf6C3-3l8KBU5pqP-72">
          <mxGeometry y="26" width="250" height="26" as="geometry" />
        </mxCell>
        <mxCell id="Bwbdaf6C3-3l8KBU5pqP-74" value="- phoneNumber: String" style="text;strokeColor=none;fillColor=none;align=left;verticalAlign=top;spacingLeft=4;spacingRight=4;overflow=hidden;rotatable=0;points=[[0,0.5],[1,0.5]];portConstraint=eastwest;whiteSpace=wrap;html=1;" vertex="1" parent="Bwbdaf6C3-3l8KBU5pqP-72">
          <mxGeometry y="52" width="250" height="26" as="geometry" />
        </mxCell>
        <mxCell id="Bwbdaf6C3-3l8KBU5pqP-75" value="- privacyLevel: PrivacyLevel" style="text;strokeColor=none;fillColor=none;align=left;verticalAlign=top;spacingLeft=4;spacingRight=4;overflow=hidden;rotatable=0;points=[[0,0.5],[1,0.5]];portConstraint=eastwest;whiteSpace=wrap;html=1;" vertex="1" parent="Bwbdaf6C3-3l8KBU5pqP-72">
          <mxGeometry y="78" width="250" height="26" as="geometry" />
        </mxCell>
        <mxCell id="Bwbdaf6C3-3l8KBU5pqP-76" value="- version: long" style="text;strokeColor=none;fillColor=none;align=left;verticalAlign=top;spacingLeft=4;spacingRight=4;overflow=hidden;rotatable=0;points=[[0,0.5],[1,0.5]];portConstraint=eastwest;whiteSpace=wrap;html=1;" vertex="1" parent="Bwbdaf6C3-3l8KBU5pqP-72">
          <mxGeometry y="104" width="250" height="26" as="geometry" />
        </mxCell>
        <mxCell id="Bwbdaf6C3-3l8KBU5pqP-81" style="edgeStyle=orthogonalEdgeStyle;rounded=0;orthogonalLoop=1;jettySize=auto;html=1;" edge="1" parent="1" source="Bwbdaf6C3-3l8KBU5pqP-1" target="Bwbdaf6C3-3l8KBU5pqP-1">
          <mxGeometry relative="1" as="geometry">
            <Array as="points">
              <mxPoint x="100" y="360" />
              <mxPoint x="100" y="440" />
            </Array>
          </mxGeometry>
        </mxCell>
        <mxCell id="Bwbdaf6C3-3l8KBU5pqP-82" value="WANTS_TO_BE_FRIENDS_WITH&lt;br&gt;FRIENDS_WITH&lt;br&gt;FOLLOWS" style="edgeLabel;html=1;align=center;verticalAlign=middle;resizable=0;points=[];" vertex="1" connectable="0" parent="Bwbdaf6C3-3l8KBU5pqP-81">
          <mxGeometry x="-0.0235" y="3" relative="1" as="geometry">
            <mxPoint as="offset" />
          </mxGeometry>
        </mxCell>
        <mxCell id="Bwbdaf6C3-3l8KBU5pqP-83" value="&lt;p style=&quot;margin:0px;margin-top:4px;text-align:center;&quot;&gt;&lt;i&gt;&amp;lt;&amp;lt;Enumeration&amp;gt;&amp;gt;&lt;/i&gt;&lt;br&gt;&lt;b&gt;PrivacyLevel&lt;/b&gt;&lt;/p&gt;&lt;hr size=&quot;1&quot; style=&quot;border-style:solid;&quot;&gt;&lt;p style=&quot;margin:0px;margin-left:4px;&quot;&gt;+ PUBLIC&lt;/p&gt;&lt;p style=&quot;margin:0px;margin-left:4px;&quot;&gt;+ FRIENDS&lt;/p&gt;&lt;p style=&quot;margin:0px;margin-left:4px;&quot;&gt;+ ONLY_ME&lt;/p&gt;" style="verticalAlign=top;align=left;overflow=fill;html=1;whiteSpace=wrap;" vertex="1" parent="1">
          <mxGeometry x="30" y="615" width="190" height="100" as="geometry" />
        </mxCell>
        <mxCell id="Bwbdaf6C3-3l8KBU5pqP-84" value="&lt;p style=&quot;margin:0px;margin-top:4px;text-align:center;&quot;&gt;&lt;i&gt;&amp;lt;&amp;lt;Enumeration&amp;gt;&amp;gt;&lt;/i&gt;&lt;br&gt;&lt;b&gt;GenderType&lt;/b&gt;&lt;/p&gt;&lt;hr size=&quot;1&quot; style=&quot;border-style:solid;&quot;&gt;&lt;p style=&quot;margin:0px;margin-left:4px;&quot;&gt;+ MALE&lt;/p&gt;&lt;p style=&quot;margin:0px;margin-left:4px;&quot;&gt;+ FEMALE&lt;/p&gt;" style="verticalAlign=top;align=left;overflow=fill;html=1;whiteSpace=wrap;" vertex="1" parent="1">
          <mxGeometry x="30" y="730" width="190" height="80" as="geometry" />
        </mxCell>
        <mxCell id="Bwbdaf6C3-3l8KBU5pqP-85" value="&lt;p style=&quot;margin:0px;margin-top:4px;text-align:center;&quot;&gt;&lt;i&gt;&amp;lt;&amp;lt;Enumeration&amp;gt;&amp;gt;&lt;/i&gt;&lt;br&gt;&lt;b&gt;RelationshipStatusType&lt;/b&gt;&lt;/p&gt;&lt;hr size=&quot;1&quot; style=&quot;border-style:solid;&quot;&gt;&lt;p style=&quot;margin:0px;margin-left:4px;&quot;&gt;+ SINGLE&lt;/p&gt;&lt;p style=&quot;margin:0px;margin-left:4px;&quot;&gt;+ MARRIED&lt;/p&gt;&lt;p style=&quot;margin:0px;margin-left:4px;&quot;&gt;+ ENGAGED&lt;/p&gt;&lt;p style=&quot;margin:0px;margin-left:4px;&quot;&gt;+ IN_A_RELATIONSHIP&lt;/p&gt;" style="verticalAlign=top;align=left;overflow=fill;html=1;whiteSpace=wrap;" vertex="1" parent="1">
          <mxGeometry x="30" y="830" width="190" height="110" as="geometry" />
        </mxCell>
      </root>
    </mxGraphModel>
  </diagram>
</mxfile>
